<svg viewBox="0 0 22 22" fill="none" xmlns="http://www.w3.org/2000/svg">
<path d="M11.9166 20.1663H4.58325C2.74992 20.1663 1.83325 19.2497 1.83325 17.4163V10.083C1.83325 8.24967 2.74992 7.33301 4.58325 7.33301H9.16659V17.4163C9.16659 19.2497 10.0833 20.1663 11.9166 20.1663Z" stroke="#84839E" stroke-width="1.5" stroke-miterlimit="10" stroke-linecap="round" stroke-linejoin="round"/>
<path d="M9.2674 3.66699C9.19407 3.94199 9.16659 4.24449 9.16659 4.58366V7.33366H4.58325V5.50033C4.58325 4.49199 5.40825 3.66699 6.41659 3.66699H9.2674Z" stroke="#84839E" stroke-width="1.5" stroke-miterlimit="10" stroke-linecap="round" stroke-linejoin="round"/>
<path d="M12.8333 7.33301V11.9163" stroke="#84839E" stroke-width="1.5" stroke-miterlimit="10" stroke-linecap="round" stroke-linejoin="round"/>
<path d="M16.5 7.33301V11.9163" stroke="#84839E" stroke-width="1.5" stroke-miterlimit="10" stroke-linecap="round" stroke-linejoin="round"/>
<path d="M15.5833 15.583H13.7499C13.2458 15.583 12.8333 15.9955 12.8333 16.4997V20.1663H16.4999V16.4997C16.4999 15.9955 16.0874 15.583 15.5833 15.583Z" stroke="#84839E" stroke-width="1.5" stroke-miterlimit="10" stroke-linecap="round" stroke-linejoin="round"/>
<path d="M5.5 11.917V15.5837" stroke="#84839E" stroke-width="1.5" stroke-miterlimit="10" stroke-linecap="round" stroke-linejoin="round"/>
<path d="M9.16675 17.4163V4.58301C9.16675 2.74967 10.0834 1.83301 11.9167 1.83301H17.4167C19.2501 1.83301 20.1667 2.74967 20.1667 4.58301V17.4163C20.1667 19.2497 19.2501 20.1663 17.4167 20.1663H11.9167C10.0834 20.1663 9.16675 19.2497 9.16675 17.4163Z" stroke="#84839E" stroke-width="1.5" stroke-miterlimit="10" stroke-linecap="round" stroke-linejoin="round"/>
</svg>
