<svg viewBox="0 0 22 22" fill="none" xmlns="http://www.w3.org/2000/svg">
<path d="M9.2676 10.2207H6.83844C6.26094 10.2207 5.79346 10.6882 5.79346 11.2657V15.959H9.2676V10.2207V10.2207Z" stroke="#84839E" stroke-width="1.5" stroke-miterlimit="10" stroke-linecap="round" stroke-linejoin="round"/>
<path d="M11.6979 6.0498H10.3045C9.72701 6.0498 9.25952 6.51732 9.25952 7.09482V15.9499H12.7337V7.09482C12.7337 6.51732 12.2754 6.0498 11.6979 6.0498Z" stroke="#84839E" stroke-width="1.5" stroke-miterlimit="10" stroke-linecap="round" stroke-linejoin="round"/>
<path d="M15.1692 11.7793H12.74V15.9502H16.2142V12.8243C16.205 12.2468 15.7375 11.7793 15.1692 11.7793Z" stroke="#84839E" stroke-width="1.5" stroke-miterlimit="10" stroke-linecap="round" stroke-linejoin="round"/>
<path d="M8.24992 20.1663H13.7499C18.3333 20.1663 20.1666 18.333 20.1666 13.7497V8.24967C20.1666 3.66634 18.3333 1.83301 13.7499 1.83301H8.24992C3.66659 1.83301 1.83325 3.66634 1.83325 8.24967V13.7497C1.83325 18.333 3.66659 20.1663 8.24992 20.1663Z" stroke="#84839E" stroke-width="1.5" stroke-linecap="round" stroke-linejoin="round"/>
</svg>
