<svg viewBox="0 0 22 22" fill="none" xmlns="http://www.w3.org/2000/svg">
<path d="M7.33325 11.1836H13.7499" stroke="#84839E" stroke-width="1.5" stroke-miterlimit="10" stroke-linecap="round" stroke-linejoin="round"/>
<path d="M7.33325 14.8496H11.3483" stroke="#84839E" stroke-width="1.5" stroke-miterlimit="10" stroke-linecap="round" stroke-linejoin="round"/>
<path d="M9.16659 5.49967H12.8333C14.6666 5.49967 14.6666 4.58301 14.6666 3.66634C14.6666 1.83301 13.7499 1.83301 12.8333 1.83301H9.16659C8.24992 1.83301 7.33325 1.83301 7.33325 3.66634C7.33325 5.49967 8.24992 5.49967 9.16659 5.49967Z" stroke="#84839E" stroke-width="1.5" stroke-miterlimit="10" stroke-linecap="round" stroke-linejoin="round"/>
<path d="M14.6667 3.68457C17.7192 3.84957 19.25 4.97707 19.25 9.16624V14.6662C19.25 18.3329 18.3333 20.1662 13.75 20.1662H8.25C3.66667 20.1662 2.75 18.3329 2.75 14.6662V9.16624C2.75 4.98624 4.28083 3.84957 7.33333 3.68457" stroke="#84839E" stroke-width="1.5" stroke-miterlimit="10" stroke-linecap="round" stroke-linejoin="round"/>
</svg>
