<svg viewBox="0 0 22 22" fill="none" xmlns="http://www.w3.org/2000/svg">
<path d="M15.5833 12.2837V15.0337C15.5833 18.7003 14.1166 20.167 10.4499 20.167H6.96659C3.29992 20.167 1.83325 18.7003 1.83325 15.0337V11.5503C1.83325 7.88366 3.29992 6.41699 6.96659 6.41699H9.71659" stroke="#84839E" stroke-width="1.5" stroke-linecap="round" stroke-linejoin="round"/>
<path d="M15.5832 12.2837H12.6499C10.4499 12.2837 9.71655 11.5503 9.71655 9.35033V6.41699L15.5832 12.2837Z" stroke="#84839E" stroke-width="1.5" stroke-linecap="round" stroke-linejoin="round"/>
<path d="M10.6333 1.83301H14.3" stroke="#84839E" stroke-width="1.5" stroke-linecap="round" stroke-linejoin="round"/>
<path d="M6.41675 4.58301C6.41675 3.06134 7.64508 1.83301 9.16675 1.83301H11.5684" stroke="#84839E" stroke-width="1.5" stroke-linecap="round" stroke-linejoin="round"/>
<path d="M20.1667 7.33301V13.0072C20.1667 14.428 19.0117 15.583 17.5908 15.583" stroke="#84839E" stroke-width="1.5" stroke-linecap="round" stroke-linejoin="round"/>
<path d="M20.1667 7.33301H17.4167C15.3542 7.33301 14.6667 6.64551 14.6667 4.58301V1.83301L20.1667 7.33301Z" stroke="#84839E" stroke-width="1.5" stroke-linecap="round" stroke-linejoin="round"/>
</svg>
