<svg viewBox="0 0 22 22" fill="none" xmlns="http://www.w3.org/2000/svg">
<path d="M8.3966 9.96384C8.30493 9.95467 8.19493 9.95467 8.0941 9.96384C5.91243 9.89051 4.17993 8.10301 4.17993 5.90301C4.17993 3.65717 5.99493 1.83301 8.24993 1.83301C10.4958 1.83301 12.3199 3.65717 12.3199 5.90301C12.3108 8.10301 10.5783 9.89051 8.3966 9.96384Z" stroke="#84839E" stroke-width="1.5" stroke-linecap="round" stroke-linejoin="round"/>
<path d="M15.0425 3.66699C16.8208 3.66699 18.2508 5.10616 18.2508 6.87533C18.2508 8.60782 16.8758 10.0195 15.1617 10.0837C15.0883 10.0745 15.0058 10.0745 14.9233 10.0837" stroke="#84839E" stroke-width="1.5" stroke-linecap="round" stroke-linejoin="round"/>
<path d="M3.81341 13.347C1.59507 14.832 1.59507 17.252 3.81341 18.7278C6.33424 20.4145 10.4684 20.4145 12.9892 18.7278C15.2076 17.2428 15.2076 14.8228 12.9892 13.347C10.4776 11.6695 6.34341 11.6695 3.81341 13.347Z" stroke="#84839E" stroke-width="1.5" stroke-linecap="round" stroke-linejoin="round"/>
<path d="M16.8118 18.333C17.4718 18.1955 18.0951 17.9297 18.6084 17.5355C20.0384 16.463 20.0384 14.6938 18.6084 13.6213C18.1043 13.2363 17.4901 12.9797 16.8393 12.833" stroke="#84839E" stroke-width="1.5" stroke-linecap="round" stroke-linejoin="round"/>
</svg>
