<svg viewBox="0 0 22 22" fill="none" xmlns="http://www.w3.org/2000/svg">
<path d="M20.1667 5.49967V7.71801C20.1667 9.16634 19.2501 10.083 17.8017 10.083H14.6667V3.67551C14.6667 2.65801 15.5009 1.83301 16.5184 1.83301C17.5176 1.84217 18.4342 2.24551 19.0942 2.90551C19.7542 3.57467 20.1667 4.49134 20.1667 5.49967Z" stroke="#84839E" stroke-width="1.5" stroke-miterlimit="10" stroke-linecap="round" stroke-linejoin="round"/>
<path d="M1.83325 6.41634V19.2497C1.83325 20.0105 2.69492 20.4413 3.29992 19.983L4.86742 18.8097C5.23409 18.5347 5.74742 18.5713 6.07742 18.9013L7.59909 20.4322C7.95659 20.7897 8.54325 20.7897 8.90075 20.4322L10.4408 18.8922C10.7616 18.5713 11.2749 18.5347 11.6324 18.8097L13.1999 19.983C13.8049 20.4322 14.6666 20.0013 14.6666 19.2497V3.66634C14.6666 2.65801 15.4916 1.83301 16.4999 1.83301H6.41659H5.49992C2.74992 1.83301 1.83325 3.47384 1.83325 5.49967V6.41634Z" stroke="#84839E" stroke-width="1.5" stroke-miterlimit="10" stroke-linecap="round" stroke-linejoin="round"/>
<path d="M8.25 11.9258H11" stroke="#84839E" stroke-width="1.5" stroke-linecap="round" stroke-linejoin="round"/>
<path d="M8.25 8.25879H11" stroke="#84839E" stroke-width="1.5" stroke-linecap="round" stroke-linejoin="round"/>
<path d="M5.49609 11.917H5.50433" stroke="#84839E" stroke-width="1.5" stroke-linecap="round" stroke-linejoin="round"/>
<path d="M5.49609 8.25H5.50433" stroke="#84839E" stroke-width="1.5" stroke-linecap="round" stroke-linejoin="round"/>
</svg>
