<svg viewBox="0 0 22 22" fill="none" xmlns="http://www.w3.org/2000/svg">
<path d="M19.25 6.41634V15.583C19.25 18.333 17.875 20.1663 14.6667 20.1663H7.33333C4.125 20.1663 2.75 18.333 2.75 15.583V6.41634C2.75 3.66634 4.125 1.83301 7.33333 1.83301H14.6667C17.875 1.83301 19.25 3.66634 19.25 6.41634Z" stroke="#414058" stroke-width="1.5" stroke-miterlimit="10" stroke-linecap="round" stroke-linejoin="round"/>
<path d="M14.2084 1.83301V9.03799C14.2084 9.44133 13.7317 9.64299 13.4384 9.37716L11.3118 7.41553C11.1376 7.25053 10.8626 7.25053 10.6884 7.41553L8.56177 9.37716C8.26844 9.64299 7.79175 9.44133 7.79175 9.03799V1.83301H14.2084Z" stroke="#414058" stroke-width="1.5" stroke-miterlimit="10" stroke-linecap="round" stroke-linejoin="round"/>
<path d="M12.1458 12.833H16.0416" stroke="#414058" stroke-width="1.5" stroke-miterlimit="10" stroke-linecap="round" stroke-linejoin="round"/>
<path d="M8.25 16.5H16.0417" stroke="#414058" stroke-width="1.5" stroke-miterlimit="10" stroke-linecap="round" stroke-linejoin="round"/>
</svg>
