<svg viewBox="0 0 22 22" fill="none" xmlns="http://www.w3.org/2000/svg">
<path d="M11.0001 10.9997C13.5314 10.9997 15.5834 8.94765 15.5834 6.41634C15.5834 3.88504 13.5314 1.83301 11.0001 1.83301C8.46878 1.83301 6.41675 3.88504 6.41675 6.41634C6.41675 8.94765 8.46878 10.9997 11.0001 10.9997Z" stroke="#84839E" stroke-width="1.5" stroke-linecap="round" stroke-linejoin="round"/>
<path d="M3.12573 20.1667C3.12573 16.6192 6.65492 13.75 10.9999 13.75" stroke="#84839E" stroke-width="1.5" stroke-linecap="round" stroke-linejoin="round"/>
<path d="M16.6833 19.6167C18.3034 19.6167 19.6167 18.3034 19.6167 16.6833C19.6167 15.0633 18.3034 13.75 16.6833 13.75C15.0633 13.75 13.75 15.0633 13.75 16.6833C13.75 18.3034 15.0633 19.6167 16.6833 19.6167Z" stroke="#84839E" stroke-width="1.5" stroke-linecap="round" stroke-linejoin="round"/>
<path d="M20.1667 20.1667L19.25 19.25" stroke="#84839E" stroke-width="1.5" stroke-linecap="round" stroke-linejoin="round"/>
</svg>
