<svg viewBox="0 0 22 22" fill="none" xmlns="http://www.w3.org/2000/svg">
<path d="M8.27739 19.8828L10.4132 18.0861C10.7341 17.8111 11.2657 17.8111 11.5866 18.0861L13.7224 19.8828C14.2174 20.1303 14.8224 19.8828 15.0057 19.3511L15.4091 18.1319C15.5099 17.8386 15.4091 17.4078 15.1891 17.1878L13.1082 15.0978C12.9524 14.9511 12.8332 14.6578 12.8332 14.4469V11.8344C12.8332 11.4494 13.1174 11.2661 13.4749 11.4128L17.9757 13.3561C18.6816 13.6586 19.2591 13.2828 19.2591 12.5128V11.3303C19.2591 10.7161 18.8007 10.0103 18.2324 9.77194L13.1082 7.56277C12.9616 7.49861 12.8332 7.30611 12.8332 7.14111V4.39111C12.8332 3.52944 12.2007 2.51194 11.4307 2.11777C11.1557 1.98027 10.8349 1.98027 10.5599 2.11777C9.78989 2.51194 9.15739 3.53861 9.15739 4.40027V7.15027C9.15739 7.31527 9.02906 7.50777 8.88239 7.57194L3.76739 9.78111C3.19906 10.0103 2.74072 10.7161 2.74072 11.3303V12.5128C2.74072 13.2828 3.31822 13.6586 4.02406 13.3561L8.52489 11.4128C8.87322 11.2569 9.16656 11.4494 9.16656 11.8344V14.4469C9.16656 14.6578 9.04739 14.9511 8.90072 15.0978L6.81989 17.1878C6.59989 17.4078 6.49906 17.8294 6.59989 18.1319L7.00322 19.3511C7.16822 19.8828 7.77322 20.1394 8.27739 19.8828Z" stroke="#84839E" stroke-width="1.5" stroke-linecap="round" stroke-linejoin="round"/>
</svg>
