<svg viewBox="0 0 22 22" fill="none" xmlns="http://www.w3.org/2000/svg">
<path d="M1.83325 11.5596H17.4166" stroke="#414058" stroke-width="1.5" stroke-miterlimit="10" stroke-linecap="round" stroke-linejoin="round"/>
<path d="M17.4166 9.42307V15.9772C17.3891 18.5897 16.6741 19.2497 13.9516 19.2497H5.29828C2.52995 19.2497 1.83325 18.5622 1.83325 15.8306V9.42307C1.83325 6.94807 2.41075 6.15057 4.58325 6.02224C4.80325 6.01307 5.04161 6.00391 5.29828 6.00391H13.9516C16.7199 6.00391 17.4166 6.69141 17.4166 9.42307Z" stroke="#414058" stroke-width="1.5" stroke-linecap="round" stroke-linejoin="round"/>
<path d="M20.1666 6.16917V12.5767C20.1666 15.0517 19.5891 15.8492 17.4166 15.9775V9.42333C17.4166 6.69167 16.7199 6.00417 13.9516 6.00417H5.29828C5.04161 6.00417 4.80325 6.01333 4.58325 6.0225C4.61075 3.41 5.32578 2.75 8.04828 2.75H16.7016C19.4699 2.75 20.1666 3.4375 20.1666 6.16917Z" stroke="#414058" stroke-width="1.5" stroke-linecap="round" stroke-linejoin="round"/>
<path d="M4.8125 16.3262H6.38914" stroke="#414058" stroke-width="1.5" stroke-miterlimit="10" stroke-linecap="round" stroke-linejoin="round"/>
<path d="M8.35083 16.3262H11.5042" stroke="#414058" stroke-width="1.5" stroke-miterlimit="10" stroke-linecap="round" stroke-linejoin="round"/>
</svg>
