<svg viewBox="0 0 22 22" fill="none" xmlns="http://www.w3.org/2000/svg">
<path d="M8.24992 20.1663H13.7499C18.3333 20.1663 20.1666 18.333 20.1666 13.7497V8.24967C20.1666 3.66634 18.3333 1.83301 13.7499 1.83301H8.24992C3.66659 1.83301 1.83325 3.66634 1.83325 8.24967V13.7497C1.83325 18.333 3.66659 20.1663 8.24992 20.1663Z" stroke="#84839E" stroke-width="1.5" stroke-linecap="round" stroke-linejoin="round"/>
<path d="M14.2083 16.9587C15.2167 16.9587 16.0417 16.1337 16.0417 15.1253V6.87533C16.0417 5.86699 15.2167 5.04199 14.2083 5.04199C13.2 5.04199 12.375 5.86699 12.375 6.87533V15.1253C12.375 16.1337 13.1908 16.9587 14.2083 16.9587Z" stroke="#84839E" stroke-width="1.5" stroke-linecap="round" stroke-linejoin="round"/>
<path d="M7.79159 16.958C8.79992 16.958 9.62492 16.133 9.62492 15.1247V11.9163C9.62492 10.908 8.79992 10.083 7.79159 10.083C6.78325 10.083 5.95825 10.908 5.95825 11.9163V15.1247C5.95825 16.133 6.77409 16.958 7.79159 16.958Z" stroke="#84839E" stroke-width="1.5" stroke-linecap="round" stroke-linejoin="round"/>
</svg>
