<svg viewBox="0 0 22 22" fill="none" xmlns="http://www.w3.org/2000/svg">
<path d="M7.33325 10.4496C7.33325 11.1554 7.88325 11.7329 8.55242 11.7329H9.92742C10.5141 11.7329 10.9908 11.2288 10.9908 10.6146C10.9908 9.94544 10.6974 9.70711 10.2666 9.55128L8.06659 8.78128C7.62659 8.62544 7.33325 8.38711 7.33325 7.71794C7.33325 7.10378 7.80992 6.59961 8.39659 6.59961H9.77159C10.4499 6.60878 10.9999 7.17711 10.9999 7.88294" stroke="#414058" stroke-width="1.5" stroke-linecap="round" stroke-linejoin="round"/>
<path d="M9.16675 11.7793V12.4576" stroke="#414058" stroke-width="1.5" stroke-linecap="round" stroke-linejoin="round"/>
<path d="M9.16675 5.87598V6.59098" stroke="#414058" stroke-width="1.5" stroke-linecap="round" stroke-linejoin="round"/>
<path d="M9.15742 16.4813C13.2024 16.4813 16.4816 13.2022 16.4816 9.15717C16.4816 5.11215 13.2024 1.83301 9.15742 1.83301C5.11239 1.83301 1.83325 5.11215 1.83325 9.15717C1.83325 13.2022 5.11239 16.4813 9.15742 16.4813Z" stroke="#414058" stroke-width="1.5" stroke-linecap="round" stroke-linejoin="round"/>
<path d="M11.8984 18.2237C12.7234 19.3878 14.0709 20.1487 15.6109 20.1487C18.1134 20.1487 20.1484 18.1137 20.1484 15.6112C20.1484 14.0895 19.3968 12.742 18.2509 11.917" stroke="#414058" stroke-width="1.5" stroke-linecap="round" stroke-linejoin="round"/>
</svg>
