<svg viewBox="0 0 22 22" fill="none" xmlns="http://www.w3.org/2000/svg">
<path d="M3.82236 14.0255L7.97486 18.178C9.67986 19.883 12.4482 19.883 14.1624 18.178L18.1865 14.1538C19.8915 12.4488 19.8915 9.68047 18.1865 7.96631L14.0249 3.82297C13.154 2.95214 11.9532 2.48464 10.7249 2.54881L6.14153 2.76881C4.30819 2.85131 2.85069 4.30881 2.75903 6.13297L2.53903 10.7163C2.48403 11.9538 2.95153 13.1546 3.82236 14.0255Z" stroke="#84839E" stroke-width="1.5" stroke-linecap="round" stroke-linejoin="round"/>
<path d="M8.70817 11.0003C9.97382 11.0003 10.9998 9.97431 10.9998 8.70866C10.9998 7.44301 9.97382 6.41699 8.70817 6.41699C7.44252 6.41699 6.4165 7.44301 6.4165 8.70866C6.4165 9.97431 7.44252 11.0003 8.70817 11.0003Z" stroke="#84839E" stroke-width="1.5" stroke-linecap="round"/>
</svg>
