<svg viewBox="0 0 22 22" fill="none" xmlns="http://www.w3.org/2000/svg">
<path d="M9.8557 15.4551V17.3159C9.8557 18.8926 8.38903 20.1668 6.5832 20.1668C4.77736 20.1668 3.30151 18.8926 3.30151 17.3159V15.4551C3.30151 17.0317 4.7682 18.1501 6.5832 18.1501C8.38903 18.1501 9.8557 17.0226 9.8557 15.4551Z" stroke="#414058" stroke-width="1.5" stroke-linecap="round" stroke-linejoin="round"/>
<path d="M9.85408 12.9344C9.85408 13.3928 9.72574 13.8144 9.50574 14.1811C8.96491 15.0702 7.85573 15.6294 6.5724 15.6294C5.28906 15.6294 4.17989 15.0611 3.63905 14.1811C3.41905 13.8144 3.29077 13.3928 3.29077 12.9344C3.29077 12.1461 3.65742 11.4402 4.24408 10.9269C4.83992 10.4044 5.65572 10.0928 6.56322 10.0928C7.47072 10.0928 8.28658 10.4136 8.88242 10.9269C9.48742 11.4311 9.85408 12.1461 9.85408 12.9344Z" stroke="#414058" stroke-width="1.5" stroke-linecap="round" stroke-linejoin="round"/>
<path d="M9.8557 12.9338V15.4547C9.8557 17.0313 8.38903 18.1497 6.5832 18.1497C4.77736 18.1497 3.30151 17.0222 3.30151 15.4547V12.9338C3.30151 11.3572 4.7682 10.083 6.5832 10.083C7.4907 10.083 8.30656 10.4038 8.90239 10.9171C9.48906 11.4305 9.8557 12.1455 9.8557 12.9338Z" stroke="#414058" stroke-width="1.5" stroke-linecap="round" stroke-linejoin="round"/>
<path d="M20.1668 10.0561V11.9444C20.1668 12.4486 19.7634 12.8611 19.2501 12.8794H17.4534C16.4634 12.8794 15.556 12.1552 15.4735 11.1652C15.4185 10.5877 15.6384 10.0469 16.0234 9.67107C16.3626 9.32274 16.8301 9.12109 17.3434 9.12109H19.2501C19.7634 9.13943 20.1668 9.55189 20.1668 10.0561Z" stroke="#414058" stroke-width="1.5" stroke-linecap="round" stroke-linejoin="round"/>
<path d="M1.83325 9.62467V7.79134C1.83325 5.29801 3.33659 3.55634 5.67409 3.26301C5.91242 3.22634 6.15992 3.20801 6.41659 3.20801H14.6666C14.9049 3.20801 15.1341 3.21716 15.3541 3.25383C17.7191 3.52883 19.2499 5.27967 19.2499 7.79134V9.12052H17.3432C16.8299 9.12052 16.3624 9.32216 16.0232 9.6705C15.6382 10.0463 15.4183 10.5872 15.4733 11.1647C15.5558 12.1547 16.4632 12.8788 17.4532 12.8788H19.2499V14.208C19.2499 16.958 17.4166 18.7913 14.6666 18.7913H12.3749" stroke="#414058" stroke-width="1.5" stroke-linecap="round" stroke-linejoin="round"/>
</svg>
